<?xml version="1.0" encoding="UTF-8" standalone="no"?>
<!DOCTYPE svg PUBLIC "-//W3C//DTD SVG 1.1//EN"
 "http://www.w3.org/Graphics/SVG/1.1/DTD/svg11.dtd">
<!-- Generated by graphviz version 12.2.1 (20241206.2353)
 -->
<!-- SGCC Web Study SvelteKit Project Architecture -->
<!-- Title: ProjectArchitecture Pages: 1 -->
<svg width="1767pt" height="1073pt"
 viewBox="0.00 0.00 1767.27 1072.74" xmlns="http://www.w3.org/2000/svg" xmlns:xlink="http://www.w3.org/1999/xlink">
<g id="graph0" class="graph" transform="scale(1 1) rotate(0) translate(4 1068.74)">
<title>ProjectArchitecture</title>
<polygon fill="white" stroke="none" points="-4,4 -4,-1068.74 1763.27,-1068.74 1763.27,4 -4,4"/>
<text text-anchor="middle" x="879.64" y="-1041.74" font-family="Times,serif" font-size="20.00">SGCC Web Study &#45; SvelteKit Project Architecture Overview (Compacted)</text>
<g id="clust2" class="cluster">
<title>cluster_client</title>
<polygon fill="lightblue" stroke="lightblue" points="583.27,-295.97 583.27,-1026.24 1751.27,-1026.24 1751.27,-295.97 583.27,-295.97"/>
<text text-anchor="middle" x="1167.27" y="-1003.24" font-family="Times,serif" font-size="20.00">Client&#45;Side (Browser &#45; SvelteKit Frontend)</text>
</g>
<g id="clust3" class="cluster">
<title>cluster_pages</title>
<polygon fill="lightyellow" stroke="lightyellow" points="673.27,-658.27 673.27,-824.76 1432.27,-824.76 1432.27,-658.27 673.27,-658.27"/>
<text text-anchor="middle" x="1052.77" y="-801.76" font-family="Times,serif" font-size="20.00">Pages (src/routes)</text>
</g>
<g id="clust4" class="cluster">
<title>cluster_components</title>
<polygon fill="lightcyan" stroke="lightcyan" points="591.27,-556.77 591.27,-639.27 1354.27,-639.27 1354.27,-556.77 591.27,-556.77"/>
<text text-anchor="middle" x="972.77" y="-616.27" font-family="Times,serif" font-size="20.00">UI Components (src/lib/components)</text>
</g>
<g id="clust5" class="cluster">
<title>cluster_server</title>
<polygon fill="lightgreen" stroke="lightgreen" points="402.27,-8 402.27,-261.47 1206.27,-261.47 1206.27,-8 402.27,-8"/>
<text text-anchor="middle" x="804.27" y="-238.47" font-family="Times,serif" font-size="20.00">Server&#45;Side (SvelteKit Backend)</text>
</g>
<g id="clust6" class="cluster">
<title>cluster_api_routes</title>
<polygon fill="palegreen" stroke="palegreen" points="410.27,-118.48 410.27,-222.97 1198.27,-222.97 1198.27,-118.48 410.27,-118.48"/>
<text text-anchor="middle" x="804.27" y="-199.97" font-family="Times,serif" font-size="20.00">API Routes (src/routes/api/todos)</text>
</g>
<!-- Vite -->
<g id="node1" class="node">
<title>Vite</title>
<ellipse fill="white" stroke="white" cx="225.27" cy="-896.25" rx="27" ry="18"/>
<text text-anchor="middle" x="225.27" y="-891.2" font-family="Times,serif" font-size="14.00">Vite</text>
</g>
<!-- NodeJS -->
<g id="node3" class="node">
<title>NodeJS</title>
<ellipse fill="white" stroke="white" cx="443.27" cy="-995.74" rx="131.71" ry="18"/>
<text text-anchor="middle" x="443.27" y="-990.69" font-family="Times,serif" font-size="14.00">Node.js (Runtime Environment)</text>
</g>
<!-- Vite&#45;&gt;NodeJS -->
<g id="edge3" class="edge">
<title>Vite&#45;&gt;NodeJS</title>
<path fill="none" stroke="black" d="M247.43,-907.16C282.11,-922.66 349.96,-953.01 395.97,-973.58"/>
<polygon fill="black" stroke="black" points="394.35,-976.7 404.91,-977.58 397.21,-970.31 394.35,-976.7"/>
<text text-anchor="middle" x="382.71" y="-946.44" font-family="Times,serif" font-size="14.00">Runs on</text>
</g>
<!-- SvelteKit -->
<g id="node2" class="node">
<title>SvelteKit</title>
<ellipse fill="white" stroke="white" cx="91.27" cy="-995.74" rx="91.27" ry="18"/>
<text text-anchor="middle" x="91.27" y="-990.69" font-family="Times,serif" font-size="14.00">SvelteKit Framework</text>
</g>
<!-- SvelteKit&#45;&gt;Vite -->
<g id="edge2" class="edge">
<title>SvelteKit&#45;&gt;Vite</title>
<path fill="none" stroke="black" d="M114.31,-977.98C137.69,-960.97 173.87,-934.64 198.51,-916.72"/>
<polygon fill="black" stroke="black" points="200.41,-919.67 206.44,-910.95 196.29,-914.01 200.41,-919.67"/>
<text text-anchor="middle" x="171.4" y="-946.44" font-family="Times,serif" font-size="14.00">Uses</text>
</g>
<!-- SvelteKit&#45;&gt;NodeJS -->
<g id="edge4" class="edge">
<title>SvelteKit&#45;&gt;NodeJS</title>
<path fill="none" stroke="black" d="M182.84,-995.74C218.51,-995.74 260.25,-995.74 299.73,-995.74"/>
<polygon fill="black" stroke="black" points="299.56,-999.24 309.56,-995.74 299.56,-992.24 299.56,-999.24"/>
<text text-anchor="middle" x="247.06" y="-1001.94" font-family="Times,serif" font-size="14.00">Runs on</text>
</g>
<!-- User -->
<g id="node4" class="node">
<title>User</title>
<polygon fill="white" stroke="white" points="1089.27,-1013.74 1035.27,-1013.74 1035.27,-977.74 1089.27,-977.74 1089.27,-1013.74"/>
<text text-anchor="middle" x="1062.27" y="-990.69" font-family="Times,serif" font-size="14.00">User</text>
</g>
<!-- AppHTML -->
<g id="node5" class="node">
<title>AppHTML</title>
<ellipse fill="white" stroke="white" cx="1062.27" cy="-896.25" rx="83.97" ry="28.99"/>
<text text-anchor="middle" x="1062.27" y="-899.45" font-family="Times,serif" font-size="14.00">src/app.html</text>
<text text-anchor="middle" x="1062.27" y="-882.95" font-family="Times,serif" font-size="14.00">(HTML Template)</text>
</g>
<!-- User&#45;&gt;AppHTML -->
<g id="edge1" class="edge">
<title>User&#45;&gt;AppHTML</title>
<path fill="none" stroke="black" d="M1062.27,-977.31C1062.27,-966.1 1062.27,-951.06 1062.27,-937.04"/>
<polygon fill="black" stroke="black" points="1065.77,-937.12 1062.27,-927.12 1058.77,-937.12 1065.77,-937.12"/>
<text text-anchor="middle" x="1120.4" y="-946.44" font-family="Times,serif" font-size="14.00">Interacts via Browser</text>
</g>
<!-- Layout -->
<g id="node6" class="node">
<title>Layout</title>
<ellipse fill="white" stroke="white" cx="1062.27" cy="-768.26" rx="136.31" ry="18"/>
<text text-anchor="middle" x="1062.27" y="-763.21" font-family="Times,serif" font-size="14.00">+layout.svelte (Common Layout)</text>
</g>
<!-- AppHTML&#45;&gt;Layout -->
<g id="edge5" class="edge">
<title>AppHTML&#45;&gt;Layout</title>
<path fill="none" stroke="black" d="M1062.27,-866.97C1062.27,-846.35 1062.27,-818.51 1062.27,-797.83"/>
<polygon fill="black" stroke="black" points="1065.77,-798.09 1062.27,-788.09 1058.77,-798.09 1065.77,-798.09"/>
</g>
<!-- AppCSS -->
<g id="node10" class="node">
<title>AppCSS</title>
<ellipse fill="white" stroke="white" cx="1510.27" cy="-768.26" rx="69.65" ry="28.99"/>
<text text-anchor="middle" x="1510.27" y="-771.46" font-family="Times,serif" font-size="14.00">src/app.css</text>
<text text-anchor="middle" x="1510.27" y="-754.96" font-family="Times,serif" font-size="14.00">(Global Styles)</text>
</g>
<!-- AppHTML&#45;&gt;AppCSS -->
<g id="edge6" class="edge">
<title>AppHTML&#45;&gt;AppCSS</title>
<path fill="none" stroke="black" d="M1144.96,-890.47C1222.94,-883.5 1341.64,-866.44 1436.27,-824.76 1449.25,-819.04 1462.07,-810.67 1473.31,-802.15"/>
<polygon fill="black" stroke="black" points="1475.48,-804.9 1481.16,-795.95 1471.14,-799.4 1475.48,-804.9"/>
<text text-anchor="middle" x="1423.15" y="-835.96" font-family="Times,serif" font-size="14.00">Links</text>
</g>
<!-- TodosAPI -->
<g id="node17" class="node">
<title>TodosAPI</title>
<ellipse fill="white" stroke="white" cx="562.27" cy="-155.47" rx="144.43" ry="28.99"/>
<text text-anchor="middle" x="562.27" y="-158.67" font-family="Times,serif" font-size="14.00">+server.js</text>
<text text-anchor="middle" x="562.27" y="-142.17" font-family="Times,serif" font-size="14.00">(GET /api/todos, POST /api/todos)</text>
</g>
<!-- AppHTML&#45;&gt;TodosAPI -->
<!-- HomePage -->
<g id="node7" class="node">
<title>HomePage</title>
<ellipse fill="white" stroke="white" cx="1062.27" cy="-684.27" rx="89.74" ry="18"/>
<text text-anchor="middle" x="1062.27" y="-679.22" font-family="Times,serif" font-size="14.00">+page.svelte (Home)</text>
</g>
<!-- Layout&#45;&gt;HomePage -->
<g id="edge7" class="edge">
<title>Layout&#45;&gt;HomePage</title>
<path fill="none" stroke="black" d="M1062.27,-749.87C1062.27,-739.43 1062.27,-725.9 1062.27,-713.92"/>
<polygon fill="black" stroke="black" points="1065.77,-714.14 1062.27,-704.14 1058.77,-714.14 1065.77,-714.14"/>
</g>
<!-- StatsPage -->
<g id="node8" class="node">
<title>StatsPage</title>
<ellipse fill="white" stroke="white" cx="1320.27" cy="-684.27" rx="103.56" ry="18"/>
<text text-anchor="middle" x="1320.27" y="-679.22" font-family="Times,serif" font-size="14.00">stats/+page.svelte (Stats)</text>
</g>
<!-- Layout&#45;&gt;StatsPage -->
<g id="edge8" class="edge">
<title>Layout&#45;&gt;StatsPage</title>
<path fill="none" stroke="black" d="M1112.94,-751.16C1155.51,-737.63 1216.39,-718.28 1261.18,-704.05"/>
<polygon fill="black" stroke="black" points="1261.99,-707.46 1270.46,-701.09 1259.87,-700.79 1261.99,-707.46"/>
</g>
<!-- AboutPage -->
<g id="node9" class="node">
<title>AboutPage</title>
<ellipse fill="white" stroke="white" cx="794.27" cy="-684.27" rx="112.77" ry="18"/>
<text text-anchor="middle" x="794.27" y="-679.22" font-family="Times,serif" font-size="14.00">about/+page.svelte (About)</text>
</g>
<!-- Layout&#45;&gt;AboutPage -->
<g id="edge9" class="edge">
<title>Layout&#45;&gt;AboutPage</title>
<path fill="none" stroke="black" d="M1009.96,-751.25C965.68,-737.71 902.15,-718.27 855.51,-704"/>
<polygon fill="black" stroke="black" points="856.67,-700.69 846.08,-701.12 854.62,-707.39 856.67,-700.69"/>
</g>
<!-- Header -->
<g id="node11" class="node">
<title>Header</title>
<ellipse fill="white" stroke="white" cx="861.27" cy="-582.77" rx="61.08" ry="18"/>
<text text-anchor="middle" x="861.27" y="-577.72" font-family="Times,serif" font-size="14.00">Header.svelte</text>
</g>
<!-- HomePage&#45;&gt;Header -->
<g id="edge10" class="edge">
<title>HomePage&#45;&gt;Header</title>
<path fill="none" stroke="black" d="M1021.01,-667.9C1000.88,-660 976.49,-649.82 955.27,-639.27 934.99,-629.17 913.15,-616.4 895.64,-605.66"/>
<polygon fill="black" stroke="black" points="897.5,-602.69 887.15,-600.4 893.81,-608.64 897.5,-602.69"/>
</g>
<!-- TodoForm -->
<g id="node12" class="node">
<title>TodoForm</title>
<ellipse fill="white" stroke="white" cx="1062.27" cy="-582.77" rx="74.89" ry="18"/>
<text text-anchor="middle" x="1062.27" y="-577.72" font-family="Times,serif" font-size="14.00">TodoForm.svelte</text>
</g>
<!-- HomePage&#45;&gt;TodoForm -->
<g id="edge11" class="edge">
<title>HomePage&#45;&gt;TodoForm</title>
<path fill="none" stroke="black" d="M1062.27,-665.93C1062.27,-651.26 1062.27,-629.91 1062.27,-612.66"/>
<polygon fill="black" stroke="black" points="1065.77,-612.75 1062.27,-602.75 1058.77,-612.75 1065.77,-612.75"/>
</g>
<!-- TodoItem -->
<g id="node13" class="node">
<title>TodoItem</title>
<ellipse fill="white" stroke="white" cx="1274.27" cy="-582.77" rx="71.82" ry="18"/>
<text text-anchor="middle" x="1274.27" y="-577.72" font-family="Times,serif" font-size="14.00">TodoItem.svelte</text>
</g>
<!-- HomePage&#45;&gt;TodoItem -->
<g id="edge12" class="edge">
<title>HomePage&#45;&gt;TodoItem</title>
<path fill="none" stroke="black" d="M1102.56,-667.76C1122.78,-659.71 1147.54,-649.45 1169.27,-639.27 1191.85,-628.69 1216.53,-615.72 1236.28,-604.98"/>
<polygon fill="black" stroke="black" points="1237.71,-608.19 1244.8,-600.32 1234.34,-602.05 1237.71,-608.19"/>
</g>
<!-- FilterBar -->
<g id="node14" class="node">
<title>FilterBar</title>
<ellipse fill="white" stroke="white" cx="667.27" cy="-582.77" rx="67.73" ry="18"/>
<text text-anchor="middle" x="667.27" y="-577.72" font-family="Times,serif" font-size="14.00">FilterBar.svelte</text>
</g>
<!-- HomePage&#45;&gt;FilterBar -->
<g id="edge13" class="edge">
<title>HomePage&#45;&gt;FilterBar</title>
<path fill="none" stroke="black" d="M1003.66,-670.23C983.34,-666.01 960.37,-661.57 939.27,-658.27 863.29,-646.37 840.55,-662.61 767.27,-639.27 743.38,-631.65 718.72,-618.04 699.87,-606.21"/>
<polygon fill="black" stroke="black" points="701.88,-603.34 691.58,-600.86 698.08,-609.22 701.88,-603.34"/>
</g>
<!-- Stores -->
<g id="node15" class="node">
<title>Stores</title>
<ellipse fill="white" stroke="white" cx="1155.27" cy="-471.61" rx="109.96" ry="40.66"/>
<text text-anchor="middle" x="1155.27" y="-483.06" font-family="Times,serif" font-size="14.00">src/lib/stores.js</text>
<text text-anchor="middle" x="1155.27" y="-466.56" font-family="Times,serif" font-size="14.00">(Svelte Stores:</text>
<text text-anchor="middle" x="1155.27" y="-450.06" font-family="Times,serif" font-size="14.00">todos, filter, theme, stats)</text>
</g>
<!-- HomePage&#45;&gt;Stores -->
<g id="edge14" class="edge">
<title>HomePage&#45;&gt;Stores</title>
<path fill="none" stroke="black" d="M1120.39,-670.12C1140.54,-665.89 1163.33,-661.47 1184.27,-658.27 1225.34,-651.98 1342.43,-670.1 1370.27,-639.27 1394.85,-612.05 1390.94,-587.05 1370.27,-556.77 1346.93,-522.57 1307.43,-502.27 1268.6,-490.21"/>
<polygon fill="black" stroke="black" points="1269.72,-486.89 1259.14,-487.45 1267.75,-493.61 1269.72,-486.89"/>
<text text-anchor="middle" x="1424.4" y="-577.72" font-family="Times,serif" font-size="14.00">Uses/Updates</text>
</g>
<!-- StatsPage&#45;&gt;Stores -->
<g id="edge18" class="edge">
<title>StatsPage&#45;&gt;Stores</title>
<path fill="none" stroke="black" d="M1394.42,-671.3C1429.8,-663.92 1466.71,-653.19 1477.27,-639.27 1499.43,-610.05 1499.68,-585.79 1477.27,-556.77 1451.65,-523.59 1351.65,-500.99 1269.81,-487.63"/>
<polygon fill="black" stroke="black" points="1270.57,-484.21 1260.14,-486.09 1269.46,-491.12 1270.57,-484.21"/>
<text text-anchor="middle" x="1525.48" y="-577.72" font-family="Times,serif" font-size="14.00">Reads Stats</text>
</g>
<!-- TodoForm&#45;&gt;Stores -->
<g id="edge15" class="edge">
<title>TodoForm&#45;&gt;Stores</title>
<path fill="none" stroke="black" d="M1073.97,-564.64C1081.17,-554.41 1090.76,-541.3 1100.02,-530.27 1103.27,-526.4 1106.71,-522.46 1110.22,-518.56"/>
<polygon fill="black" stroke="black" points="1112.78,-520.95 1116.97,-511.22 1107.62,-516.22 1112.78,-520.95"/>
<text text-anchor="middle" x="1122.15" y="-533.47" font-family="Times,serif" font-size="14.00">Updates</text>
</g>
<!-- TodoItem&#45;&gt;Stores -->
<g id="edge16" class="edge">
<title>TodoItem&#45;&gt;Stores</title>
<path fill="none" stroke="black" d="M1255.94,-564.95C1242.03,-552.19 1222.24,-534.03 1203.88,-517.19"/>
<polygon fill="black" stroke="black" points="1206.42,-514.77 1196.68,-510.59 1201.69,-519.93 1206.42,-514.77"/>
<text text-anchor="middle" x="1257.91" y="-533.47" font-family="Times,serif" font-size="14.00">Updates</text>
</g>
<!-- FilterBar&#45;&gt;Stores -->
<g id="edge17" class="edge">
<title>FilterBar&#45;&gt;Stores</title>
<path fill="none" stroke="black" d="M714.76,-569.57C731.35,-565.4 750.11,-560.77 767.27,-556.77 862.47,-534.55 971.28,-511.12 1049.4,-494.64"/>
<polygon fill="black" stroke="black" points="1049.67,-498.16 1058.73,-492.67 1048.22,-491.31 1049.67,-498.16"/>
<text text-anchor="middle" x="895.73" y="-533.47" font-family="Times,serif" font-size="14.00">Updates</text>
</g>
<!-- ClientAPI -->
<g id="node16" class="node">
<title>ClientAPI</title>
<ellipse fill="white" stroke="white" cx="981.27" cy="-332.96" rx="100.94" ry="28.99"/>
<text text-anchor="middle" x="981.27" y="-336.16" font-family="Times,serif" font-size="14.00">src/lib/api.js</text>
<text text-anchor="middle" x="981.27" y="-319.66" font-family="Times,serif" font-size="14.00">(Client&#45;Side API Calls)</text>
</g>
<!-- Stores&#45;&gt;ClientAPI -->
<g id="edge19" class="edge">
<title>Stores&#45;&gt;ClientAPI</title>
<path fill="none" stroke="black" d="M1109.1,-434.35C1082.71,-413.62 1049.84,-387.81 1024.04,-367.55"/>
<polygon fill="black" stroke="black" points="1026.45,-364.99 1016.43,-361.56 1022.13,-370.49 1026.45,-364.99"/>
<text text-anchor="middle" x="1128.19" y="-399.65" font-family="Times,serif" font-size="14.00">Triggers API calls</text>
<text text-anchor="middle" x="1128.19" y="-383.15" font-family="Times,serif" font-size="14.00">based on actions</text>
</g>
<!-- ClientAPI&#45;&gt;SvelteKit -->
<g id="edge24" class="edge">
<title>ClientAPI&#45;&gt;SvelteKit</title>
<path fill="none" stroke="blue" stroke-dasharray="5,2" d="M895.83,-348.66C784.03,-371.43 586.6,-424.15 452.27,-530.27 398.59,-572.67 386.63,-592.8 366.77,-658.27 327.26,-788.57 512.33,-858.51 421.27,-959.74 417.28,-964.18 280.22,-977.53 184.01,-986.4"/>
<polygon fill="blue" stroke="blue" points="183.93,-982.89 174.29,-987.29 184.57,-989.86 183.93,-982.89"/>
<text text-anchor="middle" x="409.52" y="-687.47" font-family="Times,serif" font-size="14.00">HTTP Requests</text>
<text text-anchor="middle" x="409.52" y="-670.97" font-family="Times,serif" font-size="14.00">to API Routes</text>
</g>
<!-- ClientAPI&#45;&gt;TodosAPI -->
<g id="edge20" class="edge">
<title>ClientAPI&#45;&gt;TodosAPI</title>
<path fill="none" stroke="black" d="M909.75,-312.2C881.24,-304.22 848.16,-294.81 818.27,-285.97 783.02,-275.53 772.87,-276.39 739.27,-261.47 694.06,-241.38 645.97,-212.3 611.34,-189.84"/>
<polygon fill="black" stroke="black" points="613.5,-187.07 603.21,-184.52 609.66,-192.92 613.5,-187.07"/>
<text text-anchor="middle" x="891.77" y="-272.67" font-family="Times,serif" font-size="14.00">fetchTodos(), createTodo()</text>
</g>
<!-- TodoDetailAPI -->
<g id="node18" class="node">
<title>TodoDetailAPI</title>
<ellipse fill="white" stroke="white" cx="981.27" cy="-155.47" rx="209.13" ry="28.99"/>
<text text-anchor="middle" x="981.27" y="-158.67" font-family="Times,serif" font-size="14.00">[id]/+server.js</text>
<text text-anchor="middle" x="981.27" y="-142.17" font-family="Times,serif" font-size="14.00">(PATCH /api/todos/{id}, DELETE /api/todos/{id})</text>
</g>
<!-- ClientAPI&#45;&gt;TodoDetailAPI -->
<g id="edge21" class="edge">
<title>ClientAPI&#45;&gt;TodoDetailAPI</title>
<path fill="none" stroke="black" d="M981.27,-303.76C981.27,-274.68 981.27,-229.08 981.27,-196.32"/>
<polygon fill="black" stroke="black" points="984.77,-196.4 981.27,-186.4 977.77,-196.4 984.77,-196.4"/>
<text text-anchor="middle" x="1056.65" y="-272.67" font-family="Times,serif" font-size="14.00">updateTodo(), deleteTodo()</text>
</g>
<!-- InMemoryData -->
<g id="node19" class="node">
<title>InMemoryData</title>
<ellipse fill="white" stroke="white" cx="702.27" cy="-44.99" rx="120.56" ry="28.99"/>
<text text-anchor="middle" x="702.27" y="-48.19" font-family="Times,serif" font-size="14.00">In&#45;Memory Data Store</text>
<text text-anchor="middle" x="702.27" y="-31.69" font-family="Times,serif" font-size="14.00">(JS Array in +server.js files)</text>
</g>
<!-- TodosAPI&#45;&gt;InMemoryData -->
<g id="edge22" class="edge">
<title>TodosAPI&#45;&gt;InMemoryData</title>
<path fill="none" stroke="black" d="M597.6,-127.1C616.06,-112.79 638.83,-95.15 658.41,-79.98"/>
<polygon fill="black" stroke="black" points="660.48,-82.8 666.24,-73.91 656.2,-77.27 660.48,-82.8"/>
<text text-anchor="middle" x="677.03" y="-95.18" font-family="Times,serif" font-size="14.00">Reads/Writes</text>
</g>
<!-- TodoDetailAPI&#45;&gt;InMemoryData -->
<g id="edge23" class="edge">
<title>TodoDetailAPI&#45;&gt;InMemoryData</title>
<path fill="none" stroke="black" d="M912.31,-127.66C870.5,-111.4 817.24,-90.69 774.81,-74.19"/>
<polygon fill="black" stroke="black" points="776.26,-71.01 765.68,-70.64 773.73,-77.53 776.26,-71.01"/>
<text text-anchor="middle" x="916.98" y="-95.18" font-family="Times,serif" font-size="14.00">Reads/Writes/Deletes</text>
</g>
</g>
</svg>
